<?xml version="1.0" standalone="no"?>
<!DOCTYPE svg PUBLIC "-//W3C//DTD SVG 20010904//EN"
 "http://www.w3.org/TR/2001/REC-SVG-20010904/DTD/svg10.dtd">
<svg version="1.0" xmlns="http://www.w3.org/2000/svg"
 width="1024.000000pt" height="576.000000pt" viewBox="0 0 1024.000000 576.000000"
 preserveAspectRatio="xMidYMid meet">

<g transform="translate(0.000000,576.000000) scale(0.100000,-0.100000)"
fill="#000000" stroke="none">
<path d="M5700 3689 c-214 -10 -450 -43 -715 -98 -221 -47 -260 -57 -249 -64
6 -3 44 -13 85 -22 41 -8 108 -23 149 -32 100 -23 129 -22 310 9 226 39 285
47 490 63 291 23 537 18 955 -20 88 -8 212 -19 275 -25 63 -6 180 -17 260 -25
80 -8 215 -14 300 -14 l155 1 -155 23 c-272 41 -363 56 -435 71 -101 20 -348
61 -505 83 -338 49 -626 64 -920 50z"/>
<path d="M3250 3659 c-268 -10 -410 -30 -630 -89 -114 -32 -233 -73 -185 -65
262 44 750 67 986 46 313 -29 654 -90 974 -176 286 -77 354 -93 510 -119 432
-72 837 -61 1405 39 373 66 535 79 895 70 203 -5 320 -3 469 9 109 8 200 17
203 19 2 3 -101 7 -229 10 -128 3 -285 11 -348 16 -312 28 -438 33 -640 28
-190 -5 -511 -26 -640 -42 -25 -3 -134 -10 -242 -15 -353 -18 -656 12 -1011
99 -586 143 -993 189 -1517 170z"/>
<path d="M4210 3369 c-113 -22 -161 -29 -245 -38 -49 -6 -128 -15 -175 -20
-256 -29 -359 -35 -645 -35 -292 1 -305 0 -225 -12 373 -58 883 -72 1240 -34
209 22 398 47 420 56 9 4 -4 12 -35 20 -100 28 -280 74 -285 73 -3 -1 -25 -5
-50 -10z"/>
<path d="M5807 3030 c-109 -19 -223 -104 -272 -200 -107 -212 1 -458 232 -530
59 -18 83 -19 298 -13 l235 6 0 59 0 58 -60 0 c-33 0 -60 3 -60 6 0 3 13 22
30 42 143 179 52 466 -174 551 -65 24 -162 33 -229 21z m189 -143 c84 -43 134
-129 134 -228 0 -77 -22 -129 -76 -181 -100 -96 -240 -93 -340 7 -40 40 -54
62 -64 104 -30 127 29 256 140 306 44 20 162 15 206 -8z"/>
<path d="M5061 2907 c-35 -67 -92 -174 -126 -237 -105 -194 -195 -368 -195
-374 0 -3 35 -6 78 -6 l78 0 29 60 29 60 175 -2 175 -3 31 -55 31 -55 82 -3
83 -3 -14 23 c-13 20 -206 377 -339 628 -22 41 -43 78 -47 82 -3 4 -35 -48
-70 -115z m127 -279 l51 -98 -110 0 c-61 0 -109 4 -107 8 24 59 103 201 108
195 4 -4 30 -52 58 -105z"/>
<path d="M2430 2655 l0 -365 70 0 70 0 0 365 0 365 -70 0 -70 0 0 -365z"/>
<path d="M2700 2960 l0 -60 110 0 110 0 0 -305 0 -305 75 0 75 0 0 305 0 304
108 3 107 3 3 58 3 57 -296 0 -295 0 0 -60z"/>
<path d="M3390 2655 l0 -365 275 0 275 0 0 60 0 60 -200 0 -200 0 0 95 0 95
175 0 175 0 0 60 0 60 -175 0 -175 0 0 90 0 90 200 0 200 0 0 60 0 60 -275 0
-275 0 0 -365z"/>
<path d="M4070 2655 l0 -365 70 0 70 0 0 115 0 115 74 0 c69 0 75 -2 91 -27
10 -16 47 -67 82 -115 l65 -88 84 0 83 0 -88 123 c-88 120 -89 122 -68 137 96
68 126 121 127 223 0 112 -57 197 -157 233 -27 9 -97 13 -235 14 l-198 0 0
-365z m390 230 c78 -41 80 -169 3 -221 -23 -16 -46 -19 -138 -18 l-110 0 -3
127 -3 127 111 0 c80 0 119 -4 140 -15z"/>
<path d="M6392 2763 l3 -258 28 -57 c55 -112 160 -170 302 -170 107 1 183 29
245 91 77 77 83 105 88 399 l4 252 -75 0 -76 0 -3 -252 c-3 -243 -4 -254 -26
-290 -62 -100 -244 -104 -313 -7 -24 33 -24 38 -27 292 l-3 257 -75 0 -75 0 3
-257z"/>
<path d="M7450 2958 c-98 -178 -350 -654 -350 -660 0 -5 35 -8 78 -8 l79 0 26
60 27 60 180 0 180 0 30 -60 30 -60 81 0 80 0 -54 103 c-72 135 -167 310 -200
370 -15 26 -52 95 -83 152 -31 58 -59 105 -63 105 -3 0 -22 -28 -41 -62z m98
-319 c29 -56 51 -103 49 -106 -2 -2 -52 -2 -110 -1 l-106 3 52 102 c29 57 54
103 57 103 3 0 29 -46 58 -101z"/>
<path d="M5520 2105 c-7 -8 -8 -15 -2 -15 5 0 15 7 22 15 7 8 8 15 2 15 -5 0
-15 -7 -22 -15z"/>
<path d="M7330 2105 c7 -8 17 -15 22 -15 6 0 5 7 -2 15 -7 8 -17 15 -22 15 -6
0 -5 -7 2 -15z"/>
<path d="M2420 2010 l0 -70 50 0 c58 0 68 17 13 22 -27 2 -39 8 -41 21 -3 14
4 17 32 17 20 0 36 5 36 10 0 6 -16 10 -35 10 -28 0 -35 4 -35 20 0 17 7 20
40 20 22 0 40 5 40 10 0 6 -22 10 -50 10 l-50 0 0 -70z"/>
<path d="M2570 2010 c0 -40 4 -70 10 -70 6 0 10 21 10 48 l1 47 42 -48 c23
-26 45 -47 50 -47 4 0 7 32 7 71 0 52 -3 70 -12 67 -8 -3 -12 -19 -10 -41 2
-20 -1 -37 -6 -37 -5 0 -23 18 -41 40 -17 22 -36 40 -41 40 -6 0 -10 -31 -10
-70z"/>
<path d="M2761 2061 c-44 -44 -13 -121 48 -121 47 0 61 10 61 41 0 35 -27 40
-32 7 -5 -34 -43 -36 -64 -3 -14 21 -15 30 -5 52 10 23 16 25 52 20 28 -4 39
-2 36 6 -7 22 -74 20 -96 -2z"/>
<path d="M2920 2011 c0 -41 4 -71 10 -71 6 0 10 27 10 60 0 33 0 63 1 67 0 4
-4 9 -10 11 -7 2 -11 -21 -11 -67z"/>
<path d="M3000 2010 c0 -40 4 -70 10 -70 6 0 10 21 10 48 l1 47 44 -50 c55
-61 68 -54 59 33 -8 73 -22 81 -26 15 l-3 -47 -35 47 c-49 66 -60 62 -60 -23z"/>
<path d="M3166 2068 c4 -7 16 -25 26 -40 10 -14 18 -40 18 -57 0 -21 5 -31 15
-31 9 0 15 10 15 26 0 14 12 45 26 70 14 24 21 44 14 44 -6 0 -19 -13 -28 -30
-21 -37 -27 -37 -49 0 -9 17 -23 30 -31 30 -8 0 -10 -5 -6 -12z"/>
<path d="M3330 2010 l0 -70 50 0 c28 0 50 5 50 10 0 6 -18 10 -40 10 -33 0
-40 3 -40 20 0 16 7 20 35 20 19 0 35 5 35 10 0 6 -16 10 -35 10 -28 0 -35 4
-35 20 0 16 7 20 35 20 19 0 35 5 35 10 0 6 -20 10 -45 10 l-45 0 0 -70z"/>
<path d="M3470 2010 c0 -40 4 -70 10 -70 6 0 10 9 10 20 0 28 37 26 60 -2 22
-28 37 -19 18 11 -10 16 -10 23 0 33 33 33 0 78 -59 78 l-39 0 0 -70z m81 34
c11 -14 10 -18 -6 -30 -28 -21 -50 -13 -53 19 -3 23 0 27 21 27 14 0 31 -7 38
-16z"/>
<path d="M3630 2010 c0 -40 4 -70 10 -70 6 0 10 30 10 70 0 40 -4 70 -10 70
-6 0 -10 -30 -10 -70z"/>
<path d="M3725 2045 c-8 -19 -22 -51 -30 -70 -16 -38 -4 -49 17 -15 17 27 61
26 81 -2 8 -13 18 -20 22 -16 11 11 -46 138 -61 138 -8 0 -21 -16 -29 -35z
m49 -46 c-6 -10 -44 -12 -44 -3 0 3 5 15 11 26 11 21 12 21 25 3 7 -10 11 -22
8 -26z"/>
<path d="M4006 2067 c-27 -20 -16 -50 24 -63 48 -16 46 -40 -2 -37 -39 2 -51
-10 -22 -21 46 -18 84 1 84 41 0 17 -8 24 -32 31 -19 5 -34 16 -36 26 -3 14 2
17 27 14 17 -1 32 2 33 7 5 16 -55 17 -76 2z"/>
<path d="M4140 2010 l0 -70 45 0 c25 0 45 5 45 10 0 6 -16 10 -35 10 -28 0
-35 4 -35 20 0 16 7 20 30 20 17 0 30 5 30 10 0 6 -13 10 -30 10 -23 0 -30 4
-30 20 0 16 7 20 35 20 19 0 35 5 35 10 0 6 -20 10 -45 10 l-45 0 0 -70z"/>
<path d="M4280 2010 c0 -40 4 -70 10 -70 6 0 10 9 10 20 0 13 7 20 20 20 10 0
24 -9 30 -20 6 -11 18 -20 27 -20 14 0 14 2 0 24 -14 21 -14 26 -2 36 37 31 1
80 -58 80 l-37 0 0 -70z m78 26 c4 -20 -13 -36 -40 -36 -13 0 -18 8 -18 31 0
27 3 30 27 27 18 -2 29 -10 31 -22z"/>
<path d="M4431 2029 c41 -106 50 -111 80 -41 36 82 39 92 28 92 -5 0 -21 -24
-34 -52 l-25 -53 -22 53 c-30 71 -55 72 -27 1z"/>
<path d="M4580 2010 l0 -70 50 0 c58 0 68 17 13 22 -27 2 -39 8 -41 21 -3 14
4 17 32 17 45 0 48 18 4 22 -22 2 -34 9 -36 21 -3 14 4 17 37 17 23 0 41 5 41
10 0 6 -22 10 -50 10 l-50 0 0 -70z"/>
<path d="M4720 2009 c0 -52 3 -70 13 -67 7 3 13 29 15 71 2 55 0 67 -13 67
-12 0 -15 -14 -15 -71z"/>
<path d="M4801 2066 c-16 -19 -11 -47 9 -56 43 -20 51 -26 48 -35 -2 -5 -18
-9 -35 -8 -34 2 -45 -10 -17 -21 27 -10 61 -7 74 9 20 24 7 49 -30 61 -45 15
-46 39 -2 39 40 0 36 19 -5 23 -17 2 -35 -3 -42 -12z"/>
<path d="M5000 2063 c0 -10 3 -42 6 -70 7 -59 24 -62 24 -5 l0 37 21 -32 c26
-41 33 -41 49 -3 17 42 30 37 30 -10 0 -22 5 -40 10 -40 6 0 10 30 10 70 0 39
-4 70 -10 70 -5 0 -21 -21 -36 -46 l-27 -47 -24 47 c-23 46 -53 62 -53 29z"/>
<path d="M5212 2013 c-20 -43 -28 -69 -20 -72 6 -2 15 4 20 13 12 22 67 21 84
-1 7 -10 16 -15 19 -11 11 10 -45 138 -60 138 -6 0 -26 -30 -43 -67z m62 -15
c-5 -8 -44 -11 -44 -3 0 2 5 16 12 30 l12 26 12 -23 c7 -12 10 -26 8 -30z"/>
<path d="M5360 2010 c0 -40 4 -70 10 -70 6 0 10 9 10 20 0 15 7 20 24 20 16 0
27 -7 31 -20 3 -11 13 -20 22 -20 14 0 14 2 0 24 -14 21 -14 26 -2 36 38 32 4
80 -56 80 l-39 0 0 -70z m80 35 c10 -12 10 -18 0 -30 -27 -32 -71 -8 -56 30 3
8 14 15 24 15 11 0 25 -7 32 -15z"/>
<path d="M5510 2009 c0 -52 3 -70 13 -66 10 3 13 56 8 130 -1 4 -5 7 -11 7 -6
0 -10 -30 -10 -71z"/>
<path d="M5570 2070 c0 -5 9 -10 20 -10 16 0 19 -8 22 -57 4 -81 28 -85 28 -4
0 54 2 61 20 61 11 0 20 5 20 10 0 6 -25 10 -55 10 -30 0 -55 -4 -55 -10z"/>
<path d="M5720 2010 c0 -40 4 -70 10 -70 6 0 10 30 10 70 0 40 -4 70 -10 70
-6 0 -10 -30 -10 -70z"/>
<path d="M5790 2009 c0 -52 3 -70 13 -66 7 2 11 19 10 43 l-2 39 29 -35 28
-34 20 33 21 34 3 -38 c2 -21 9 -40 16 -43 9 -3 12 15 12 67 0 40 -4 71 -10
71 -5 0 -21 -18 -35 -40 -14 -22 -27 -40 -30 -40 -3 0 -16 18 -30 40 -14 22
-30 40 -35 40 -6 0 -10 -31 -10 -71z"/>
<path d="M5992 2068 c-24 -24 -14 -49 28 -65 22 -9 40 -20 40 -25 0 -15 -32
-22 -51 -10 -13 8 -20 9 -25 1 -15 -25 61 -40 84 -17 23 23 14 57 -15 64 -58
14 -67 48 -12 42 16 -1 30 2 31 7 4 15 -65 18 -80 3z"/>
<path d="M6200 2010 c0 -40 4 -70 10 -70 6 0 10 30 10 70 0 40 -4 70 -10 70
-6 0 -10 -30 -10 -70z"/>
<path d="M6353 2073 c-11 -8 -17 -27 -14 -49 0 -6 19 -16 42 -23 52 -16 46
-37 -10 -34 -36 2 -41 0 -31 -13 25 -30 100 -10 100 27 0 15 -12 25 -40 36
-47 19 -47 39 -1 36 20 0 31 3 28 10 -4 14 -57 21 -74 10z"/>
<path d="M6480 2026 c0 -76 35 -105 91 -76 15 9 19 22 19 70 0 33 -4 60 -10
60 -5 0 -10 -22 -10 -49 0 -95 -62 -97 -68 -2 -4 68 -22 66 -22 -3z"/>
<path d="M6640 2010 l0 -70 41 0 c67 0 101 34 68 67 -8 8 -8 13 0 17 33 20 -9
56 -65 56 l-44 0 0 -70z m85 30 c0 -9 -11 -16 -27 -18 -23 -3 -28 1 -28 18 0
17 5 21 28 18 16 -2 27 -9 27 -18z m10 -60 c0 -10 -12 -16 -32 -18 -28 -3 -33
0 -33 18 0 18 5 21 33 18 20 -2 32 -8 32 -18z"/>
<path d="M6815 2015 c-28 -66 -28 -97 1 -57 19 28 60 29 76 2 7 -11 18 -20 25
-20 17 0 -41 134 -60 138 -9 2 -24 -21 -42 -63z m65 -17 c0 -5 -11 -8 -25 -8
-29 0 -29 0 -13 35 l12 26 13 -23 c7 -13 12 -26 13 -30z"/>
<path d="M6970 2060 c-42 -42 -21 -90 56 -132 30 -17 79 -14 68 4 -3 5 -14 6
-25 3 -25 -8 -24 7 1 30 28 25 27 79 -2 99 -31 22 -74 20 -98 -4z m84 -19 c22
-25 13 -58 -20 -73 -27 -12 -49 0 -60 34 -7 23 21 58 46 58 9 0 25 -9 34 -19z"/>
<path d="M7131 2043 c2 -61 13 -87 41 -97 20 -7 33 -5 52 8 23 14 26 23 26 71
0 30 -4 55 -10 55 -5 0 -10 -22 -10 -49 0 -95 -62 -97 -68 -2 -2 36 -7 51 -18
51 -10 0 -14 -11 -13 -37z"/>
<path d="M7309 2014 c-28 -63 -32 -98 -5 -62 18 25 72 27 90 3 8 -11 17 -17
21 -14 9 9 -51 139 -64 139 -6 0 -25 -30 -42 -66z m55 10 c10 -26 7 -34 -14
-34 -11 0 -20 4 -20 9 0 17 12 41 20 41 4 0 11 -7 14 -16z"/>
<path d="M7430 2070 c0 -5 9 -10 20 -10 16 0 19 -8 22 -57 4 -81 28 -85 28 -4
0 54 2 61 20 61 11 0 20 5 20 10 0 6 -25 10 -55 10 -30 0 -55 -4 -55 -10z"/>
<path d="M7580 2010 c0 -40 4 -70 10 -70 6 0 10 30 10 70 0 40 -4 70 -10 70
-6 0 -10 -30 -10 -70z"/>
<path d="M7665 2056 c-14 -14 -25 -34 -25 -46 0 -28 43 -70 72 -70 30 0 52 15
44 29 -5 7 -12 7 -26 -1 -15 -10 -23 -9 -39 6 -43 39 -16 94 40 82 22 -4 29
-2 27 7 -3 6 -19 13 -36 15 -23 2 -38 -4 -57 -22z"/>
<path d="M7812 2068 c-7 -7 -12 -22 -12 -35 0 -18 7 -25 30 -29 38 -8 59 -31
36 -40 -9 -3 -28 -3 -42 0 -19 5 -25 3 -22 -6 11 -33 98 -14 98 21 0 23 -16
36 -53 45 -38 9 -29 31 12 30 21 -1 31 3 31 12 0 18 -61 19 -78 2z"/>
<path d="M3857 1973 c-8 -13 5 -63 14 -57 12 7 12 51 0 59 -5 3 -12 2 -14 -2z"/>
</g>
</svg>
